<svg width="160" height="213" viewBox="0 0 160 213" fill="none" xmlns="http://www.w3.org/2000/svg">
<path d="M127.381 41.6549L141.206 49.8153L130.269 56.7736L116.433 47.5279L127.381 41.6549Z" fill="#F396BF"/>
<path d="M130.27 56.772L127.214 73.916L138.027 66.5816L141.207 49.8136L130.27 56.772Z" fill="#EA62A3"/>
<path d="M116.433 47.5281L130.269 56.7738L127.213 73.9177L114.689 65.0367L116.433 47.5281Z" fill="#ED74B3"/>
<path d="M48.5442 9.08395C51.0539 9.08395 53.0885 7.05045 53.0885 4.54198C53.0885 2.03352 51.0539 0 48.5442 0C46.0345 0 44 2.03352 44 4.54198C44 7.05045 46.0345 9.08395 48.5442 9.08395Z" fill="#7299FE"/>
<path d="M156.428 184.852C158.321 184.852 159.855 183.318 159.855 181.426C159.855 179.534 158.321 178 156.428 178C154.535 178 153 179.534 153 181.426C153 183.318 154.535 184.852 156.428 184.852Z" fill="#EA62A3"/>
<path d="M14.0193 209.218L11.1809 198.625L0.587883 201.463L3.42628 212.056L14.0193 209.218Z" fill="#FEC272"/>
</svg>
